<svg width="151" height="60" viewBox="0 0 151 60" fill="none" xmlns="http://www.w3.org/2000/svg">
<path d="M67.5681 14.5H66.9557L51.3938 24.8733L51.3253 24.6058C49.1823 18.5104 43.1521 15.8325 35.4486 15.8325H24.3765V43.9604H36.1156C43.4889 43.9604 49.3829 40.9458 51.3939 35.1862L51.4607 34.9856L67.2705 45.5L84.0214 34.3154V43.9605H104.072V35.3649H94.0669V15.8325H84.0214V25.7801L71.5312 34.3007L68.6975 32.2931L81.4267 23.7203L75.7797 20.0606L62.9152 28.6334L60.2022 26.9388L73.0642 18.3669L67.5681 14.5ZM41.8115 30.2299C41.8115 33.915 39.1336 35.5891 35.7821 35.5891H34.4276V24.5373H35.7821C39.4671 24.5373 41.8115 26.4128 41.8115 30.2299ZM125.745 43.9604H106.109V15.8325H116.157V35.3648H125.745V43.9604Z" fill="#262626"/>
</svg>
