<svg width="93" height="50" viewBox="0 0 93 50" fill="none" xmlns="http://www.w3.org/2000/svg">
<g id="Layer_1">
<g id="group">
<g id="group-1">
<g id="group-2">
<path id="Path" d="M65.4372 32.3618C64.1628 32.6538 60.8089 32.822 60.8089 32.822L60.3841 34.1494C60.3841 34.1494 62.0566 34.0078 63.2779 34.1317C63.2779 34.1317 63.6761 34.0875 63.7204 34.583C63.7381 35.0432 63.685 35.5388 63.685 35.5388C63.685 35.5388 63.6584 35.8397 63.2336 35.9105C62.7735 35.9901 59.623 36.1052 59.623 36.1052L59.1097 37.8308C59.1097 37.8308 58.9239 38.2291 59.3487 38.114C59.7469 38.0078 63.0478 37.3883 63.4814 37.4768C63.9416 37.5919 64.4549 38.2025 64.3044 38.7689C64.1274 39.4591 60.8354 41.5653 58.8266 41.4149C58.8266 41.4149 57.7735 41.4857 56.8797 40.0609C56.0478 38.7069 57.1982 36.1317 57.1982 36.1317C57.1982 36.1317 56.6761 34.9282 57.0566 34.5299C57.0566 34.5299 57.2867 34.3264 57.9416 34.2733L58.7469 32.6007C58.7469 32.6007 57.8266 32.6627 57.2779 31.9901C56.7646 31.3441 56.7292 31.0521 57.1186 30.8751C57.5345 30.6715 61.3664 29.9724 64.0035 30.0609C64.0035 30.0609 64.9239 29.9724 65.7115 31.5653C65.7027 31.5653 66.092 32.2114 65.4372 32.3618ZM55.5168 38.7866C55.1805 39.583 54.2867 40.4326 53.1805 39.9016C52.0832 39.3706 50.3398 35.8043 50.3398 35.8043C50.3398 35.8043 49.6761 34.4768 49.5522 34.5034C49.5522 34.5034 49.4106 34.2468 49.3221 35.6981C49.2336 37.1494 49.3398 39.9724 48.7646 40.4149C48.2159 40.8574 47.5522 40.6804 47.2071 40.1583C46.8974 39.645 46.7646 38.4237 46.9328 36.2822C47.1363 34.1406 47.6319 31.8574 48.269 31.1406C48.9062 30.4326 49.4195 30.9459 49.6142 31.1317C49.6142 31.1317 50.4637 31.9016 51.8708 34.1671L52.1186 34.583C52.1186 34.583 53.3929 36.7246 53.5257 36.7158C53.5257 36.7158 53.6319 36.8131 53.7204 36.7423C53.8531 36.7069 53.8 36.0167 53.8 36.0167C53.8 36.0167 53.5345 33.6892 52.3752 29.7423C52.3752 29.7423 52.1982 29.2468 52.3221 28.7866C52.4372 28.3176 52.9062 28.5388 52.9062 28.5388C52.9062 28.5388 54.7115 29.4414 55.5788 32.3795C56.4372 35.3441 55.8531 37.9901 55.5168 38.7866ZM46.6496 31.2379C46.4991 31.5388 46.4106 31.9724 45.6496 32.0875C45.6496 32.0875 38.3664 32.583 38.0212 33.0963C38.0212 33.0963 37.7646 33.3972 38.1628 33.4857C38.5611 33.5653 40.2071 33.7866 41.0036 33.8308C41.8531 33.8397 44.7204 33.8662 45.7469 35.1494C45.7469 35.1494 46.3575 35.76 46.331 37.1406C46.3044 38.5565 46.0566 39.0521 45.508 39.5653C44.9328 40.0432 39.9947 42.2556 36.8089 38.8574C36.8089 38.8574 35.3398 37.2202 37.3133 35.9813C37.3133 35.9813 38.7381 35.1229 42.3575 36.1317C42.3575 36.1317 43.4549 36.5299 43.4018 36.9282C43.3398 37.353 42.4991 37.8043 41.2779 37.7777C40.092 37.7423 39.2248 37.176 39.3929 37.2645C39.5522 37.3264 38.1186 36.5742 37.6761 37.0875C37.2336 37.5565 37.3398 37.8485 37.7735 38.1406C38.8797 38.7689 43.154 38.5476 44.4283 37.1317C44.4283 37.1317 44.9328 36.5565 44.1628 36.0875C43.3929 35.645 41.1894 35.3795 40.331 35.3353C39.508 35.291 36.446 35.3441 36.0036 34.5299C36.0036 34.5299 35.5611 33.9813 36.0478 32.4237C36.5611 30.7954 40.1274 30.1671 41.6673 30.0255C41.6673 30.0255 45.9062 29.8751 46.685 30.7423C46.6761 30.7423 46.7823 30.9459 46.6496 31.2379ZM34.6142 40.7866C34.1009 41.1671 33.0124 40.999 32.7027 40.5742C32.3929 40.1937 32.2867 38.6804 32.3487 36.3087C32.4106 33.9105 32.4637 30.937 32.977 30.468C33.5257 29.9901 33.862 30.406 34.0743 30.7335C34.3044 31.0521 34.5788 31.406 34.6407 32.1583C34.6938 32.9105 34.8708 36.8574 34.8708 36.8574C34.8708 36.8574 35.1009 40.4149 34.6142 40.7866ZM35.7204 28.0609C34.2248 28.5565 33.1982 28.3884 32.331 28.0167C31.9505 28.6804 31.7292 28.8839 31.4372 28.9282C31.0124 28.9724 30.6319 28.291 30.5611 28.0698C30.4903 27.9016 30.2867 27.6184 30.5345 26.9459C29.685 26.1848 29.623 25.1583 29.7646 24.468C29.977 23.6715 31.4106 20.645 35.7735 20.291C35.7735 20.291 37.9062 20.1317 38.269 21.2733H38.331C38.331 21.2733 40.4018 21.2822 40.3575 23.1229C40.331 24.9724 38.0566 27.2733 35.7204 28.0609ZM31.6496 23.9636C31.2071 24.6715 31.1894 25.0963 31.3929 25.3883C31.8974 24.6184 32.8177 23.406 34.1717 22.4857C33.1274 22.5742 32.2513 23.0255 31.6496 23.9636ZM37.6761 22.7777C36.3044 22.9813 34.1805 24.822 33.1717 26.3264C34.7204 26.6096 37.4549 26.5034 38.6673 24.0344C38.6584 24.0344 39.2425 22.5034 37.6761 22.7777ZM74.9151 37.0344C74.092 38.468 71.7823 41.4591 68.7027 40.76C67.685 43.2291 66.8354 45.7158 66.3487 49.4503C66.3487 49.4503 66.2425 50.176 65.6407 49.9193C65.0478 49.7069 64.0566 48.7158 63.862 47.3441C63.6496 45.5388 64.4549 42.4857 66.092 38.9901C65.6142 38.2114 65.2867 37.0963 65.5699 35.5122C65.5699 35.5122 65.9858 32.5742 68.9328 29.9193C68.9328 29.9193 69.2867 29.6096 69.4903 29.7069C69.7204 29.8043 69.6142 30.76 69.4283 31.2202C69.2425 31.6804 67.9239 33.9636 67.9239 33.9636C67.9239 33.9636 67.1009 35.5034 67.331 36.7158C68.8797 34.3353 72.4018 29.5299 74.5876 31.0432C75.3221 31.5653 75.6584 32.7069 75.6584 33.937C75.6496 35.0255 75.3929 36.176 74.9151 37.0344ZM74.2779 33.2645C74.2779 33.2645 74.154 32.3176 73.2336 33.3618C72.4372 34.2379 71.0035 35.8928 69.8443 38.1317C71.0566 37.999 72.2248 37.3353 72.5788 36.999C73.154 36.4857 74.4903 35.1052 74.2779 33.2645ZM31.3133 34.468C31.1451 36.6096 30.3221 40.2114 24.4903 41.9901C20.6407 43.1494 17.0035 42.5919 15.0212 42.0875C14.977 42.8751 14.8885 43.2114 14.7646 43.3441C14.5965 43.5122 13.3398 44.2379 12.6496 43.2114C12.3398 42.7246 12.1805 41.8397 12.092 41.0521C7.63187 38.999 5.57877 36.0432 5.49913 35.9105C5.40178 35.8131 4.38408 34.7512 5.40178 33.4503C6.35753 32.2733 9.48143 31.0963 12.2956 30.6184C12.3929 28.2114 12.6761 26.3972 13.0124 25.5653C13.4195 24.6007 13.9328 25.468 14.3752 26.1229C14.7469 26.6096 14.9682 28.7069 14.9859 30.3795C16.8266 30.291 17.9151 30.4237 19.9682 30.7954C22.6407 31.2822 24.4283 32.645 24.269 34.1937C24.154 35.7158 22.7558 36.3441 22.2248 36.3884C21.6673 36.4326 20.8 36.0344 20.8 36.0344C20.2071 35.7512 20.7558 35.5034 21.4726 35.1937C22.2513 34.8131 22.0743 34.4237 22.0743 34.4237C21.7823 33.5742 18.3133 32.9813 14.862 32.9813C14.8443 34.8839 14.9416 38.0432 14.9859 39.8839C17.4018 40.3441 19.2071 40.2556 19.2071 40.2556C19.2071 40.2556 28.0212 40.0078 28.2867 34.3795C28.5611 28.7423 19.4991 23.3353 12.8 21.6184C6.10974 19.8662 2.32213 21.0875 1.9947 21.2556C1.64072 21.4326 1.96815 21.4857 1.96815 21.4857C1.96815 21.4857 2.33098 21.5388 2.9593 21.7512C3.62302 21.9636 3.10974 22.3087 3.10974 22.3087C1.96815 22.6715 0.684966 22.4414 0.437178 21.9193C0.189391 21.3972 0.60532 20.9282 1.0832 20.2556C1.56107 19.5476 2.0832 19.5742 2.0832 19.5742C10.3575 16.7069 20.4372 21.8928 20.4372 21.8928C29.8797 26.6804 31.4903 32.291 31.3133 34.468ZM6.33983 34.176C5.40178 34.6361 6.0478 35.2999 6.0478 35.2999C7.80886 37.1937 9.977 38.3795 12.0389 39.114C12.2779 35.8485 12.2425 34.6981 12.269 33.0521C9.0478 33.2733 7.18939 33.7866 6.33983 34.176Z" fill="black"/>
</g>
</g>
<g id="group-3">
<g id="group-4">
<g id="group-5">
<path id="Path-1" d="M92.4369 33.5035V34.6716C92.4369 34.9283 92.2334 35.1318 91.9768 35.1318H86.4104C86.4104 35.4239 86.4192 35.6805 86.4192 35.9194C86.4192 37.6451 86.3485 39.0522 86.1803 40.6363C86.1538 40.8752 85.9591 41.0522 85.729 41.0522H84.5254C84.4015 41.0522 84.2865 40.9991 84.2069 40.9106C84.1272 40.8221 84.083 40.6982 84.1007 40.5743C84.2688 38.9991 84.3485 37.6097 84.3485 35.9194C84.3485 35.6716 84.3485 35.415 84.3396 35.1318H78.8352C78.5785 35.1318 78.375 34.9283 78.375 34.6716V33.5035C78.375 33.2469 78.5785 33.0433 78.8352 33.0433H84.26C84.1449 31.1407 83.9148 29.3088 83.5431 27.4504C83.5254 27.3354 83.552 27.2203 83.6228 27.1318C83.6936 27.0433 83.7998 26.9902 83.9148 26.9902H85.2157C85.4192 26.9902 85.5874 27.1318 85.6316 27.3354C85.9945 29.2557 86.2246 31.123 86.3396 33.0433H91.9768C92.2246 33.0433 92.4369 33.2557 92.4369 33.5035Z" fill="black"/>
</g>
</g>
</g>
<g id="group-6">
<g id="group-7">
<path id="Path-3" d="M84.8621 24.238C81.986 17.1672 77.1276 11.1407 70.809 6.8044C64.34 2.37077 56.7559 0.0256348 48.8798 0.0256348C35.8533 0.0256348 23.7648 6.49466 16.5524 17.3354C16.4727 17.4504 16.455 17.6009 16.4993 17.7336C16.5435 17.8752 16.6497 17.9725 16.7825 18.0168L17.7913 18.3619C17.8533 18.3796 17.9152 18.3885 17.9683 18.3885C18.1542 18.3885 18.3311 18.2911 18.4373 18.1407C21.7471 13.2734 26.225 9.22917 31.3931 6.43271C36.7294 3.54776 42.7736 2.01679 48.871 2.01679C56.2427 2.01679 63.3488 4.19378 69.4373 8.29997C75.3754 12.3088 79.986 17.9106 82.7736 24.4858C82.8533 24.6805 83.048 24.8132 83.2604 24.8132H84.4639C84.6055 24.8132 84.7382 24.7424 84.809 24.6274C84.8975 24.5124 84.9152 24.3708 84.8621 24.238ZM17.9683 18.0876H17.986C17.986 18.0876 17.9772 18.0876 17.9683 18.0876ZM83.0126 24.654C83.0391 24.6717 83.0657 24.6894 83.0922 24.6982C83.0657 24.6805 83.0391 24.6717 83.0126 24.654Z" fill="url(#paint0_radial_3211_14203)"/>
</g>
</g>
</g>
</g>
<defs>
<radialGradient id="paint0_radial_3211_14203" cx="0" cy="0" r="1" gradientUnits="userSpaceOnUse" gradientTransform="translate(83.7315 24.7686) scale(67.2676 67.2676)">
<stop offset="0.007" stop-color="#1B1B1B"/>
<stop offset="0.03" stop-color="#494949"/>
<stop offset="0.057" stop-color="#404040"/>
<stop offset="0.084" stop-color="#484848"/>
<stop offset="0.111" stop-color="#4F4F4F"/>
<stop offset="0.138" stop-color="#323232"/>
<stop offset="0.165" stop-color="#191919"/>
<stop offset="0.191" stop-color="#1B1B1B"/>
<stop offset="0.216" stop-color="#1D1D1D"/>
<stop offset="1" stop-color="white" stop-opacity="0"/>
</radialGradient>
</defs>
</svg>
