<svg width="59" height="60" viewBox="0 0 59 60" fill="none" xmlns="http://www.w3.org/2000/svg">
<g id="Pepsi_2023 3" clip-path="url(#clip0_3211_14193)">
<g id="Group">
<path id="Vector" d="M29.7994 0.000244141C13.7395 0.000244141 0.708984 13.4385 0.708984 30.0001C0.708984 46.5616 13.7395 59.9999 29.7994 59.9999C45.8592 59.9999 58.8905 46.5616 58.8905 30.0001C58.8905 13.4385 45.8592 0.000244141 29.7994 0.000244141ZM29.7994 1.13134C45.2669 1.13134 57.7936 14.0494 57.7936 30.0001C57.7936 45.9508 45.2669 58.8692 29.7994 58.8692C14.3319 58.8692 1.80482 45.9508 1.80482 30.0001C1.80482 14.0494 14.3319 1.13134 29.7994 1.13134Z" fill="#0F0F0F"/>
<path id="Vector_2" d="M43.5554 24.1526C40.5048 24.1526 38.7446 25.6208 38.7446 27.6284C38.7446 31.9234 45.4102 30.7872 45.4102 32.331C45.4102 32.9036 44.613 33.113 43.9274 33.113C42.6796 33.113 41.4875 32.7646 40.9701 31.8406L38.0175 32.9902C38.0175 32.9902 38.5674 35.7801 43.8308 35.7801C47.1728 35.7801 48.9768 34.3133 48.9768 32.1784C48.9768 28.0548 42.3407 29.1123 42.3407 27.6253C42.3407 27.128 43.1618 26.8689 43.6672 26.8689C45.6004 26.8689 45.7514 28.0592 45.7514 28.0592L48.7538 26.8638C48.4604 25.9507 47.7559 24.1526 43.5554 24.1526ZM53.7859 24.2313L50.0643 25.6112V35.4143H53.7859V24.2313ZM11.6494 24.423H5.62793V35.4143H9.34952V33.3502L12.4508 32.1206C15.2495 31.0107 15.8811 29.9203 15.8957 27.9908C15.9205 24.6047 12.5936 24.423 11.6494 24.423ZM33.8462 24.423H27.8244V35.4143H31.546V33.3502L34.6473 32.1206C37.446 31.0107 38.0775 29.9203 38.0921 27.9908C38.1173 24.6047 34.79 24.423 33.8462 24.423ZM16.9404 24.423V35.4143H26.3419V32.6651H20.6613V31.2472H25.0632V28.5959H20.6616V27.1721H26.2898V24.4233L16.9404 24.423ZM9.34952 27.1725H10.8144C11.5568 27.1725 12.1721 27.4651 12.1721 28.3101C12.1721 29.1475 11.4917 29.5764 11.2077 29.6948L9.34952 30.4703V27.1725ZM31.546 27.1725H33.0109C33.7533 27.1725 34.3689 27.4651 34.3689 28.3101C34.3689 29.1475 33.6885 29.5764 33.4041 29.6948L31.546 30.4703V27.1725Z" fill="#0F0F0F"/>
<path id="Vector_3" d="M42.851 38.8226C35.2127 38.8226 24.9367 42.1851 16.4149 42.1851C9.08391 42.1851 6.00216 40.7453 5.90625 40.6998C10.0397 50.4922 19.4167 56.8288 29.7843 56.8349C40.1353 56.8281 49.5007 50.5104 53.6438 40.7402C53.5674 40.7118 48.4819 38.8226 42.8514 38.8226H42.851Z" fill="#0F0F0F"/>
<path id="Vector_4" d="M16.7163 21.1772C24.5856 21.1772 34.6306 17.8144 43.1524 17.8144C50.1416 17.8144 53.5907 19.3147 53.6866 19.3603C49.5528 9.56781 40.1503 3.17105 29.7833 3.16455C19.4323 3.1714 10.0142 9.53838 5.87109 19.3089C5.94742 19.3373 10.9965 21.1772 16.7163 21.1772Z" fill="#0F0F0F"/>
</g>
</g>
<defs>
<clipPath id="clip0_3211_14193">
<rect width="58.1818" height="60" fill="white" transform="translate(0.708984)"/>
</clipPath>
</defs>
</svg>
