<svg width="136" height="44" viewBox="0 0 136 44" fill="none" xmlns="http://www.w3.org/2000/svg">
<g id="reddit-seeklogo.com 1" clip-path="url(#clip0_3211_14222)">
<g id="Group">
<path id="Subtract" fill-rule="evenodd" clip-rule="evenodd" d="M44.0046 22.0325C44.0046 34.1018 34.2063 43.8859 22.1195 43.8859C10.0327 43.8859 0.234375 34.1018 0.234375 22.0325C0.234375 9.96327 10.0327 0.179199 22.1195 0.179199C34.2063 0.179199 44.0046 9.96327 44.0046 22.0325ZM33.4021 18.958C35.1701 18.8982 36.6498 20.2725 36.7151 22.0325C36.7368 23.2602 36.0459 24.3901 34.9471 24.9387C34.9688 25.2592 34.9688 25.5797 34.9471 25.9002C34.9471 30.7999 29.2351 34.7762 22.1903 34.7762C15.1455 34.7762 9.43345 30.7945 9.43345 25.9002C9.41169 25.5797 9.41169 25.2592 9.43345 24.9387C9.11249 24.7975 8.82417 24.5965 8.57393 24.3629C7.28465 23.157 7.22481 21.1362 8.43249 19.8543C9.64017 18.5669 11.6639 18.5071 12.9477 19.713C15.4719 18.0074 18.4367 17.073 21.4831 17.0241L23.0987 9.44093V9.43007C23.1803 9.06069 23.5448 8.83254 23.9093 8.91402L29.2731 9.98414C29.6159 9.38661 30.236 8.98464 30.9269 8.91402C32.1291 8.78365 33.2063 9.65278 33.3368 10.8533C33.4674 12.0538 32.597 13.1293 31.3947 13.2597C30.1925 13.3901 29.1154 12.5209 28.9848 11.3204L24.301 10.3372L22.8811 17.1545C25.8895 17.2197 28.8162 18.1486 31.3077 19.8434C31.8735 19.3056 32.6187 18.9851 33.4021 18.958ZM17.0223 22.0325C15.8146 22.0325 14.8299 23.0157 14.8299 24.2217C14.8299 25.4276 15.8091 26.3999 17.0223 26.4108C18.2299 26.4108 19.2146 25.4276 19.2146 24.2217C19.2146 23.0157 18.2299 22.0325 17.0223 22.0325ZM22.1359 31.9135C24.0834 31.995 25.9874 31.3975 27.5432 30.2296V30.3165C27.7826 30.0829 27.788 29.6918 27.5541 29.4528C27.3202 29.2138 26.9285 29.2083 26.6891 29.4419C25.3563 30.3925 23.7461 30.8597 22.1141 30.7728C20.4821 30.8488 18.8773 30.3599 17.5608 29.3985C17.3378 29.2192 17.0277 29.2192 16.8101 29.3985C16.5599 29.6049 16.5218 29.9797 16.7285 30.2296C18.2843 31.3975 20.1883 31.995 22.1359 31.9135ZM24.9592 24.2977C24.9592 25.5036 25.9439 26.4869 27.1515 26.4869L27.1352 26.5683H27.244C28.4517 26.5195 29.3928 25.5036 29.3439 24.2977C29.3439 23.0918 28.3592 22.1086 27.1515 22.1086C25.9439 22.1086 24.9592 23.0918 24.9592 24.2977Z" fill="#0F0F0F"/>
</g>
<g id="Group_2">
<path id="Vector" d="M122.335 15.3674C123.981 15.3674 125.316 14.0346 125.316 12.3906C125.316 10.7466 123.981 9.41382 122.335 9.41382C120.688 9.41382 119.354 10.7466 119.354 12.3906C119.354 14.0346 120.688 15.3674 122.335 15.3674Z" fill="#0F0F0F"/>
<path id="Vector_2" d="M80.0874 25.0583C81.2407 25.1398 82.2417 24.2706 82.3287 23.1136C82.3342 23.0484 82.3342 22.9724 82.3342 22.9018C82.3178 22.4998 82.2689 22.0924 82.1873 21.6958C81.4801 17.9259 78.2542 15.1501 74.419 14.998C70.0506 14.998 66.4004 19.0069 66.4004 23.9284C66.4004 28.8499 69.9908 32.8642 74.4135 32.8642C76.7582 32.9566 79.0321 32.0114 80.6097 30.2785C81.257 29.5724 81.2026 28.4805 80.4954 27.8341C80.441 27.7852 80.3921 27.7418 80.3377 27.7037C79.6305 27.2637 78.7111 27.3561 78.1127 27.9319C77.1281 28.9097 75.8062 29.4692 74.4135 29.5126C72.009 29.3225 70.0833 27.443 69.8439 25.0366H80.0222L80.0874 25.0583ZM74.3972 18.3605C76.5134 18.5018 78.2922 20.0119 78.7655 22.0815H70.0398C70.5076 20.0064 72.2756 18.4963 74.3972 18.3605Z" fill="#0F0F0F"/>
<path id="Vector_3" d="M66.5746 16.7309C66.5746 15.8943 65.9544 15.1827 65.1221 15.0795C62.8754 14.7047 60.5906 15.5358 59.1163 17.2741V17.0568C59.1163 16.1279 58.3656 15.3783 57.4354 15.3783C56.5051 15.3783 55.7544 16.1279 55.7544 17.0568V30.8C55.7326 31.7017 56.4235 32.4676 57.3266 32.5437C58.2459 32.6089 59.051 31.9136 59.1109 30.9955C59.1163 30.9304 59.1163 30.8652 59.1109 30.8V23.7491C58.964 20.9353 61.1237 18.5397 63.9416 18.3876C64.1918 18.3713 64.4475 18.3768 64.6978 18.4039H65.035C65.9054 18.3279 66.5746 17.6054 66.5746 16.7309Z" fill="#0F0F0F"/>
<path id="Vector_4" d="M124.01 18.5342C124.01 17.6053 123.26 16.8557 122.329 16.8557C121.399 16.8557 120.648 17.6053 120.648 18.5342V30.7945C120.648 31.7234 121.399 32.473 122.329 32.473C123.26 32.473 124.01 31.7234 124.01 30.7945V18.5342Z" fill="#0F0F0F"/>
<path id="Vector_5" d="M99.2038 9.21825C99.2038 8.2948 98.453 7.54517 97.5282 7.54517C96.6034 7.54517 95.8527 8.2948 95.8527 9.21825V16.7146C94.7212 15.5738 93.1654 14.9545 91.5606 14.998C87.1922 14.998 83.542 19.0069 83.542 23.9284C83.542 28.8499 87.1378 32.8642 91.5606 32.8642C93.1926 32.9131 94.7702 32.2884 95.9289 31.1313C96.19 32.0168 97.1202 32.522 98.007 32.2612C98.6761 32.0657 99.1548 31.479 99.1983 30.7783L99.2038 9.21825ZM91.5497 29.556C88.9766 29.556 86.8822 27.0573 86.8822 23.9664C86.8822 20.8755 88.9602 18.3768 91.5497 18.3768C94.1391 18.3768 96.2172 20.8755 96.2172 23.9664C96.2172 27.0573 94.1391 29.5289 91.5606 29.5289L91.5497 29.556Z" fill="#0F0F0F"/>
<path id="Vector_6" d="M116.731 9.21825C116.731 8.2948 115.98 7.54517 115.056 7.54517C114.131 7.54517 113.38 8.2948 113.38 9.21825V16.7146C112.249 15.5738 110.693 14.9545 109.088 14.998C104.72 14.998 101.069 19.0069 101.069 23.9284C101.069 28.8499 104.665 32.8642 109.088 32.8642C110.72 32.9131 112.297 32.2884 113.456 31.1313C113.717 32.0168 114.648 32.522 115.534 32.2612C116.203 32.0657 116.682 31.479 116.726 30.7783L116.731 9.21825ZM109.082 29.556C106.509 29.556 104.415 27.0573 104.415 23.9664C104.415 20.8755 106.493 18.3768 109.082 18.3768C111.672 18.3768 113.75 20.8755 113.75 23.9664C113.75 27.0573 111.672 29.5289 109.093 29.5289L109.082 29.556Z" fill="#0F0F0F"/>
<path id="Vector_7" d="M132.72 30.7892V18.3606H134.172C134.977 18.4095 135.663 17.7956 135.712 16.9971C135.712 16.97 135.717 16.9374 135.717 16.9048C135.788 16.1063 135.195 15.4001 134.401 15.3295C134.357 15.324 134.308 15.324 134.265 15.324H132.725V13.0154C132.736 12.1191 132.05 11.364 131.153 11.2826C130.233 11.2174 129.434 11.9127 129.369 12.8307C129.363 12.8687 129.363 12.9122 129.363 12.9502V15.3621H127.905C127.1 15.3132 126.415 15.927 126.366 16.7255C126.366 16.7527 126.36 16.7853 126.36 16.8179C126.289 17.6164 126.882 18.3226 127.677 18.3932C127.72 18.3986 127.769 18.3986 127.813 18.3986H129.265V30.7947C129.265 31.7181 130.016 32.4677 130.941 32.4677C131.865 32.5275 132.654 31.8213 132.714 30.8979C132.72 30.8653 132.72 30.8272 132.72 30.7892Z" fill="#0F0F0F"/>
</g>
</g>
<defs>
<clipPath id="clip0_3211_14222">
<rect width="136" height="44" fill="white"/>
</clipPath>
</defs>
</svg>
