<svg width="201" height="40" viewBox="0 0 201 40" fill="none" xmlns="http://www.w3.org/2000/svg">
<g id="Rivian_logo_and_wordmark 1" clip-path="url(#clip0_3211_14218)">
<path id="Vector" d="M200.7 9.84302H196.51V24.869L184.403 9.84302H179.434V30.071H183.624V15.045L195.729 30.071H200.7V9.84302ZM159.999 9.84302H155.376L145.437 30.069H150.06L151.303 27.4693C151.822 26.3717 152.632 25.8792 153.846 25.8792H161.359L160.463 23.9723C159.914 22.7869 159.018 22.2391 157.69 22.2391H153.848L157.69 14.2642L165.317 30.0692H169.941L159.999 9.84302ZM135.956 9.84302H131.621V30.069H135.956V9.84302ZM122.062 9.84302H117.439L110.1 25.505L102.76 9.84302H98.137L107.788 30.071H112.411L122.062 9.84302ZM88.6557 9.84302H84.3208V30.069H88.6557V9.84302ZM73.0717 16.5774C73.0717 13.1683 70.7601 9.84512 65.7896 9.84512H52.9316V30.0711H57.2666V13.4851H65.1557C67.5837 13.4851 68.7385 14.6705 68.7385 16.5774C68.7385 18.5129 67.5817 19.6983 65.1557 19.6983H61.7998C60.2792 19.6983 59.4248 20.5526 59.4248 22.0732V23.3404H61.8324C62.9586 23.3404 63.7966 23.7165 64.4915 24.6116L68.7671 30.0727H74.0831L68.1315 22.5024C71.3096 21.7769 73.0717 19.6963 73.0717 16.5774Z" fill="#0F0F0F"/>
<path id="Vector_2" d="M22.8018 24.256C23.8401 23.3077 25.6693 21.5337 26.3499 20.7386C26.6605 20.3871 26.6401 19.9477 26.6401 19.9477C26.6401 19.9477 26.6605 19.5082 26.3499 19.1567C25.6693 18.3617 23.8401 16.5876 22.8018 15.6393C22.3767 15.2428 22.2745 14.9935 22.2745 14.507V9.12984C22.2745 8.87436 22.5177 8.76195 22.7242 8.94181C25.0398 11.0858 30.1984 16.1974 31.9274 18.1778C32.7531 19.0546 32.6775 19.9478 32.6775 19.9478C32.6775 19.9478 32.7531 20.8389 31.9274 21.7177C30.1963 23.6982 25.0377 28.8097 22.7242 30.9537C22.5177 31.1336 22.2745 31.0211 22.2745 30.7657V25.3884C22.2766 24.8999 22.3767 24.6525 22.8018 24.256ZM19.7565 24.2519C18.7183 23.3036 16.8891 21.5295 16.2085 20.7345C15.8978 20.383 15.9182 19.9435 15.9182 19.9435C15.9182 19.9435 15.8978 19.5041 16.2085 19.1526C16.8891 18.3575 18.7183 16.5835 19.7565 15.6352C20.1816 15.2387 20.2838 14.9893 20.2838 14.5029V9.10934C20.2838 8.8927 20.0304 8.7578 19.8342 8.9397C17.5186 11.0837 12.36 16.1953 10.6309 18.1757C9.80319 19.0525 9.88085 19.9457 9.88085 19.9457C9.88085 19.9457 9.80523 20.8368 10.6309 21.7156C12.362 23.6961 17.5206 28.8077 19.8342 30.9516C20.0406 31.1315 20.2838 31.0191 20.2838 30.7636V25.3863C20.2838 24.8958 20.1816 24.6464 19.7565 24.2519ZM0.779526 21.5029C3.10743 23.9044 15.7015 36.8949 18.0615 38.7689C18.8852 39.4291 19.9459 39.9135 21.2764 39.9135C22.609 39.9135 23.6697 39.4291 24.4914 38.7689C26.852 36.8948 39.4454 23.9039 41.7734 21.5029C41.9634 21.2842 41.7917 20.9409 41.5056 20.9409C40.3427 20.9409 37.6469 20.9368 36.0221 20.9368C35.4498 20.9368 35.2802 21.0369 34.9204 21.4232C34.5607 21.8095 32.7704 23.7307 32.7704 23.7307C30.4935 26.1853 24.9405 31.6055 22.911 33.3141C22.1487 33.9559 21.2862 33.9354 21.2739 33.9354C21.2616 33.9354 20.3991 33.9559 19.6368 33.3141C17.6073 31.6034 12.0543 26.1832 9.77743 23.7307C9.77743 23.7307 7.98703 21.8095 7.62733 21.4232C7.26763 21.0369 7.09798 20.9368 6.52573 20.9368C4.90293 20.9368 2.20513 20.9409 1.04213 20.9409C0.760076 20.9409 0.588396 21.2842 0.778476 21.5029H0.779526ZM41.7765 18.4107C39.4486 16.0092 26.8545 3.01874 24.4945 1.14474C23.6708 0.484584 22.6101 0.000244141 21.2796 0.000244141C19.947 0.000244141 18.8863 0.484624 18.0647 1.14474C15.704 3.01894 3.10773 16.0097 0.779726 18.4107C0.589656 18.6294 0.761332 18.9727 1.04747 18.9727C2.21037 18.9727 4.90617 18.9768 6.53107 18.9768C7.10334 18.9768 7.27297 18.8767 7.63267 18.4904C7.99239 18.1041 9.78277 16.1829 9.78277 16.1829C12.0596 13.7283 17.6127 8.30814 19.6422 6.59954C20.4045 5.95778 21.267 5.97822 21.2793 5.97822C21.2915 5.97822 22.154 5.95778 22.9164 6.59954C24.9459 8.31024 30.4989 13.7303 32.7757 16.1829C32.7757 16.1829 34.5661 18.1041 34.9258 18.4904C35.2855 18.8767 35.4552 18.9768 36.0274 18.9768C37.6502 18.9768 40.3481 18.9727 41.511 18.9727C41.7971 18.9748 41.9666 18.6294 41.7765 18.4107Z" fill="#0F0F0F"/>
</g>
<defs>
<clipPath id="clip0_3211_14218">
<rect width="200" height="40" fill="white" transform="translate(0.700195)"/>
</clipPath>
</defs>
</svg>
