<svg width="217" height="56" viewBox="0 0 217 56" fill="none" xmlns="http://www.w3.org/2000/svg">
<path fill-rule="evenodd" clip-rule="evenodd" d="M60.8097 27.9512C60.8097 24.1262 64.0857 21.0769 70.2531 21.0769C76.4226 21.0769 79.7327 24.1262 79.7327 27.9512C79.7327 31.8307 76.6122 34.9231 70.2893 34.9231C63.9642 34.9231 60.8097 31.8307 60.8097 27.9512ZM66.9844 27.8705C66.943 30.3223 67.9326 32.7888 70.185 32.8285C72.5055 32.8716 73.5029 30.3784 73.5442 27.9851C73.5899 25.4471 72.4753 23.1923 70.3651 23.1547C68.2549 23.1191 67.0301 25.3325 66.9844 27.8705ZM21.1094 23.3773L27.3056 34.5314L34.4777 34.5369L40.5675 23.3773H43.6199V21.356H34.438V23.3773H37.0902L32.6557 31.501L28.1625 23.3773H31.3856L31.3834 21.356H18.0629L18.0608 23.3773H21.1094ZM100.042 23.3718V21.356L112.326 21.3577V23.3735H109.265V32.4779H112.102C114.73 32.4779 116.453 30.757 116.453 28.4236H118.48V34.5201L100.042 34.5218V32.4796H103.138L103.134 23.3718H100.042ZM139.431 23.3773L145.625 34.5314L152.799 34.5369L158.889 23.3773H161.941V21.356H152.759V23.3773H155.412L150.977 31.501L146.484 23.3773H149.705V21.356H136.384L136.382 23.3773H139.431ZM179.137 27.9512C179.137 24.1262 182.413 21.0769 188.581 21.0769C194.75 21.0769 198.061 24.1262 198.061 27.9512C198.061 31.8307 194.94 34.9231 188.617 34.9231C182.292 34.9231 179.137 31.8307 179.137 27.9512ZM185.312 27.8705C185.271 30.3223 186.26 32.7888 188.513 32.8285C190.831 32.8716 191.829 30.3784 191.871 27.9851C191.916 25.4471 190.803 23.1923 188.693 23.1547C186.583 23.1191 185.358 25.3325 185.312 27.8705Z" fill="#262626"/>
</svg>
